<mxfile host="drawio-plugin" modified="2023-05-07T07:12:38.653Z" agent="5.0 (Windows NT 6.2; Win64; x64) AppleWebKit/537.36 (KHTML, like Gecko) Chrome/104.0.5112.102 Safari/537.36" etag="IwjMiFQB4BjTSs-JUmOO" version="20.5.3" type="embed"><diagram id="R2lEEEUBdFMjLlhIrx00" name="Page-1"><mxGraphModel dx="1217" dy="870" grid="1" gridSize="10" guides="1" tooltips="1" connect="1" arrows="1" fold="1" page="0" pageScale="1" pageWidth="850" pageHeight="1100" math="0" shadow="0" extFonts="Permanent Marker^https://fonts.googleapis.com/css?family=Permanent+Marker"><root><mxCell id="0"/><mxCell id="1" parent="0"/><mxCell id="B2K_DiUD_IXNH7CX3Efj-12" style="edgeStyle=orthogonalEdgeStyle;rounded=0;orthogonalLoop=1;jettySize=auto;html=1;entryX=0.5;entryY=0;entryDx=0;entryDy=0;strokeWidth=2;fontSize=13;startArrow=ERoneToMany;startFill=0;endArrow=ERmandOne;endFill=0;" parent="1" source="C-vyLk0tnHw3VtMMgP7b-2" target="C-vyLk0tnHw3VtMMgP7b-13" edge="1"><mxGeometry relative="1" as="geometry"/></mxCell><mxCell id="C-vyLk0tnHw3VtMMgP7b-2" value="Product" style="shape=table;startSize=30;container=1;collapsible=1;childLayout=tableLayout;fixedRows=1;rowLines=0;fontStyle=1;align=center;resizeLast=1;strokeWidth=2;fontSize=13;" parent="1" vertex="1"><mxGeometry x="362.5" y="280" width="290" height="240" as="geometry"/></mxCell><mxCell id="C-vyLk0tnHw3VtMMgP7b-3" value="" style="shape=partialRectangle;collapsible=0;dropTarget=0;pointerEvents=0;fillColor=none;points=[[0,0.5],[1,0.5]];portConstraint=eastwest;top=0;left=0;right=0;bottom=1;strokeWidth=2;fontSize=13;" parent="C-vyLk0tnHw3VtMMgP7b-2" vertex="1"><mxGeometry y="30" width="290" height="30" as="geometry"/></mxCell><mxCell id="C-vyLk0tnHw3VtMMgP7b-4" value="PK" style="shape=partialRectangle;overflow=hidden;connectable=0;fillColor=none;top=0;left=0;bottom=0;right=0;fontStyle=1;strokeWidth=2;fontSize=13;" parent="C-vyLk0tnHw3VtMMgP7b-3" vertex="1"><mxGeometry width="30" height="30" as="geometry"><mxRectangle width="30" height="30" as="alternateBounds"/></mxGeometry></mxCell><mxCell id="C-vyLk0tnHw3VtMMgP7b-5" value="id" style="shape=partialRectangle;overflow=hidden;connectable=0;fillColor=none;top=0;left=0;bottom=0;right=0;align=left;spacingLeft=6;fontStyle=5;strokeWidth=2;fontSize=13;" parent="C-vyLk0tnHw3VtMMgP7b-3" vertex="1"><mxGeometry x="30" width="90" height="30" as="geometry"><mxRectangle width="90" height="30" as="alternateBounds"/></mxGeometry></mxCell><mxCell id="_qmN48agiN7q7MSuu_BF-8" value="BIG SERIAL NOT NULL" style="shape=partialRectangle;overflow=hidden;connectable=0;fillColor=none;top=0;left=0;bottom=0;right=0;align=left;spacingLeft=6;fontStyle=0;strokeWidth=2;fontSize=13;" parent="C-vyLk0tnHw3VtMMgP7b-3" vertex="1"><mxGeometry x="120" width="170" height="30" as="geometry"><mxRectangle width="170" height="30" as="alternateBounds"/></mxGeometry></mxCell><mxCell id="C-vyLk0tnHw3VtMMgP7b-6" value="" style="shape=partialRectangle;collapsible=0;dropTarget=0;pointerEvents=0;fillColor=none;points=[[0,0.5],[1,0.5]];portConstraint=eastwest;top=0;left=0;right=0;bottom=0;strokeWidth=2;fontSize=13;" parent="C-vyLk0tnHw3VtMMgP7b-2" vertex="1"><mxGeometry y="60" width="290" height="30" as="geometry"/></mxCell><mxCell id="C-vyLk0tnHw3VtMMgP7b-7" value="" style="shape=partialRectangle;overflow=hidden;connectable=0;fillColor=none;top=0;left=0;bottom=0;right=0;strokeWidth=2;fontSize=13;" parent="C-vyLk0tnHw3VtMMgP7b-6" vertex="1"><mxGeometry width="30" height="30" as="geometry"><mxRectangle width="30" height="30" as="alternateBounds"/></mxGeometry></mxCell><mxCell id="C-vyLk0tnHw3VtMMgP7b-8" value="name" style="shape=partialRectangle;overflow=hidden;connectable=0;fillColor=none;top=0;left=0;bottom=0;right=0;align=left;spacingLeft=6;strokeWidth=2;fontSize=13;" parent="C-vyLk0tnHw3VtMMgP7b-6" vertex="1"><mxGeometry x="30" width="90" height="30" as="geometry"><mxRectangle width="90" height="30" as="alternateBounds"/></mxGeometry></mxCell><mxCell id="_qmN48agiN7q7MSuu_BF-9" value="TEXT NOT NULL" style="shape=partialRectangle;overflow=hidden;connectable=0;fillColor=none;top=0;left=0;bottom=0;right=0;align=left;spacingLeft=6;strokeWidth=2;fontSize=13;" parent="C-vyLk0tnHw3VtMMgP7b-6" vertex="1"><mxGeometry x="120" width="170" height="30" as="geometry"><mxRectangle width="170" height="30" as="alternateBounds"/></mxGeometry></mxCell><mxCell id="C-vyLk0tnHw3VtMMgP7b-9" value="" style="shape=partialRectangle;collapsible=0;dropTarget=0;pointerEvents=0;fillColor=none;points=[[0,0.5],[1,0.5]];portConstraint=eastwest;top=0;left=0;right=0;bottom=0;strokeWidth=2;fontSize=13;" parent="C-vyLk0tnHw3VtMMgP7b-2" vertex="1"><mxGeometry y="90" width="290" height="30" as="geometry"/></mxCell><mxCell id="C-vyLk0tnHw3VtMMgP7b-10" value="" style="shape=partialRectangle;overflow=hidden;connectable=0;fillColor=none;top=0;left=0;bottom=0;right=0;strokeWidth=2;fontSize=13;" parent="C-vyLk0tnHw3VtMMgP7b-9" vertex="1"><mxGeometry width="30" height="30" as="geometry"><mxRectangle width="30" height="30" as="alternateBounds"/></mxGeometry></mxCell><mxCell id="C-vyLk0tnHw3VtMMgP7b-11" value="price " style="shape=partialRectangle;overflow=hidden;connectable=0;fillColor=none;top=0;left=0;bottom=0;right=0;align=left;spacingLeft=6;strokeWidth=2;fontSize=13;" parent="C-vyLk0tnHw3VtMMgP7b-9" vertex="1"><mxGeometry x="30" width="90" height="30" as="geometry"><mxRectangle width="90" height="30" as="alternateBounds"/></mxGeometry></mxCell><mxCell id="_qmN48agiN7q7MSuu_BF-10" value="INT NOT NUL" style="shape=partialRectangle;overflow=hidden;connectable=0;fillColor=none;top=0;left=0;bottom=0;right=0;align=left;spacingLeft=6;strokeWidth=2;fontSize=13;" parent="C-vyLk0tnHw3VtMMgP7b-9" vertex="1"><mxGeometry x="120" width="170" height="30" as="geometry"><mxRectangle width="170" height="30" as="alternateBounds"/></mxGeometry></mxCell><mxCell id="_qmN48agiN7q7MSuu_BF-5" style="shape=partialRectangle;collapsible=0;dropTarget=0;pointerEvents=0;fillColor=none;points=[[0,0.5],[1,0.5]];portConstraint=eastwest;top=0;left=0;right=0;bottom=0;strokeWidth=2;fontSize=13;" parent="C-vyLk0tnHw3VtMMgP7b-2" vertex="1"><mxGeometry y="120" width="290" height="30" as="geometry"/></mxCell><mxCell id="_qmN48agiN7q7MSuu_BF-6" style="shape=partialRectangle;overflow=hidden;connectable=0;fillColor=none;top=0;left=0;bottom=0;right=0;strokeWidth=2;fontSize=13;" parent="_qmN48agiN7q7MSuu_BF-5" vertex="1"><mxGeometry width="30" height="30" as="geometry"><mxRectangle width="30" height="30" as="alternateBounds"/></mxGeometry></mxCell><mxCell id="_qmN48agiN7q7MSuu_BF-7" value="description" style="shape=partialRectangle;overflow=hidden;connectable=0;fillColor=none;top=0;left=0;bottom=0;right=0;align=left;spacingLeft=6;strokeWidth=2;fontSize=13;" parent="_qmN48agiN7q7MSuu_BF-5" vertex="1"><mxGeometry x="30" width="90" height="30" as="geometry"><mxRectangle width="90" height="30" as="alternateBounds"/></mxGeometry></mxCell><mxCell id="_qmN48agiN7q7MSuu_BF-11" value="TEXT NOT NULL" style="shape=partialRectangle;overflow=hidden;connectable=0;fillColor=none;top=0;left=0;bottom=0;right=0;align=left;spacingLeft=6;strokeWidth=2;fontSize=13;" parent="_qmN48agiN7q7MSuu_BF-5" vertex="1"><mxGeometry x="120" width="170" height="30" as="geometry"><mxRectangle width="170" height="30" as="alternateBounds"/></mxGeometry></mxCell><mxCell id="UyFNqlkeK4uvULBeV92R-1" style="shape=partialRectangle;collapsible=0;dropTarget=0;pointerEvents=0;fillColor=none;points=[[0,0.5],[1,0.5]];portConstraint=eastwest;top=0;left=0;right=0;bottom=0;strokeWidth=2;fontSize=13;" parent="C-vyLk0tnHw3VtMMgP7b-2" vertex="1"><mxGeometry y="150" width="290" height="30" as="geometry"/></mxCell><mxCell id="UyFNqlkeK4uvULBeV92R-2" style="shape=partialRectangle;overflow=hidden;connectable=0;fillColor=none;top=0;left=0;bottom=0;right=0;strokeWidth=2;fontSize=13;" parent="UyFNqlkeK4uvULBeV92R-1" vertex="1"><mxGeometry width="30" height="30" as="geometry"><mxRectangle width="30" height="30" as="alternateBounds"/></mxGeometry></mxCell><mxCell id="UyFNqlkeK4uvULBeV92R-3" value="created_at" style="shape=partialRectangle;overflow=hidden;connectable=0;fillColor=none;top=0;left=0;bottom=0;right=0;align=left;spacingLeft=6;strokeWidth=2;fontSize=13;" parent="UyFNqlkeK4uvULBeV92R-1" vertex="1"><mxGeometry x="30" width="90" height="30" as="geometry"><mxRectangle width="90" height="30" as="alternateBounds"/></mxGeometry></mxCell><mxCell id="UyFNqlkeK4uvULBeV92R-4" value="TIMESTAMP NOT NULL" style="shape=partialRectangle;overflow=hidden;connectable=0;fillColor=none;top=0;left=0;bottom=0;right=0;align=left;spacingLeft=6;strokeWidth=2;fontSize=13;" parent="UyFNqlkeK4uvULBeV92R-1" vertex="1"><mxGeometry x="120" width="170" height="30" as="geometry"><mxRectangle width="170" height="30" as="alternateBounds"/></mxGeometry></mxCell><mxCell id="UyFNqlkeK4uvULBeV92R-5" style="shape=partialRectangle;collapsible=0;dropTarget=0;pointerEvents=0;fillColor=none;points=[[0,0.5],[1,0.5]];portConstraint=eastwest;top=0;left=0;right=0;bottom=0;strokeWidth=2;fontSize=13;" parent="C-vyLk0tnHw3VtMMgP7b-2" vertex="1"><mxGeometry y="180" width="290" height="30" as="geometry"/></mxCell><mxCell id="UyFNqlkeK4uvULBeV92R-6" style="shape=partialRectangle;overflow=hidden;connectable=0;fillColor=none;top=0;left=0;bottom=0;right=0;strokeWidth=2;fontSize=13;" parent="UyFNqlkeK4uvULBeV92R-5" vertex="1"><mxGeometry width="30" height="30" as="geometry"><mxRectangle width="30" height="30" as="alternateBounds"/></mxGeometry></mxCell><mxCell id="UyFNqlkeK4uvULBeV92R-7" value="updated_at" style="shape=partialRectangle;overflow=hidden;connectable=0;fillColor=none;top=0;left=0;bottom=0;right=0;align=left;spacingLeft=6;strokeWidth=2;fontSize=13;" parent="UyFNqlkeK4uvULBeV92R-5" vertex="1"><mxGeometry x="30" width="90" height="30" as="geometry"><mxRectangle width="90" height="30" as="alternateBounds"/></mxGeometry></mxCell><mxCell id="UyFNqlkeK4uvULBeV92R-8" value="TIMESTAMP NOT NULL" style="shape=partialRectangle;overflow=hidden;connectable=0;fillColor=none;top=0;left=0;bottom=0;right=0;align=left;spacingLeft=6;strokeWidth=2;fontSize=13;" parent="UyFNqlkeK4uvULBeV92R-5" vertex="1"><mxGeometry x="120" width="170" height="30" as="geometry"><mxRectangle width="170" height="30" as="alternateBounds"/></mxGeometry></mxCell><mxCell id="UyFNqlkeK4uvULBeV92R-9" style="shape=partialRectangle;collapsible=0;dropTarget=0;pointerEvents=0;fillColor=none;points=[[0,0.5],[1,0.5]];portConstraint=eastwest;top=0;left=0;right=0;bottom=0;strokeWidth=2;fontSize=13;" parent="C-vyLk0tnHw3VtMMgP7b-2" vertex="1"><mxGeometry y="210" width="290" height="30" as="geometry"/></mxCell><mxCell id="UyFNqlkeK4uvULBeV92R-10" value="FK" style="shape=partialRectangle;overflow=hidden;connectable=0;fillColor=none;top=0;left=0;bottom=0;right=0;strokeWidth=2;fontSize=13;" parent="UyFNqlkeK4uvULBeV92R-9" vertex="1"><mxGeometry width="30" height="30" as="geometry"><mxRectangle width="30" height="30" as="alternateBounds"/></mxGeometry></mxCell><mxCell id="UyFNqlkeK4uvULBeV92R-11" value="category_id" style="shape=partialRectangle;overflow=hidden;connectable=0;fillColor=none;top=0;left=0;bottom=0;right=0;align=left;spacingLeft=6;strokeWidth=2;fontSize=13;" parent="UyFNqlkeK4uvULBeV92R-9" vertex="1"><mxGeometry x="30" width="90" height="30" as="geometry"><mxRectangle width="90" height="30" as="alternateBounds"/></mxGeometry></mxCell><mxCell id="UyFNqlkeK4uvULBeV92R-12" value="BIG INT NOT NULL" style="shape=partialRectangle;overflow=hidden;connectable=0;fillColor=none;top=0;left=0;bottom=0;right=0;align=left;spacingLeft=6;strokeWidth=2;fontSize=13;" parent="UyFNqlkeK4uvULBeV92R-9" vertex="1"><mxGeometry x="120" width="170" height="30" as="geometry"><mxRectangle width="170" height="30" as="alternateBounds"/></mxGeometry></mxCell><mxCell id="C-vyLk0tnHw3VtMMgP7b-13" value="Product_Category" style="shape=table;startSize=30;container=1;collapsible=1;childLayout=tableLayout;fixedRows=1;rowLines=0;fontStyle=1;align=center;resizeLast=1;strokeWidth=2;fontSize=13;" parent="1" vertex="1"><mxGeometry x="355" y="610" width="305" height="90" as="geometry"/></mxCell><mxCell id="C-vyLk0tnHw3VtMMgP7b-14" value="" style="shape=partialRectangle;collapsible=0;dropTarget=0;pointerEvents=0;fillColor=none;points=[[0,0.5],[1,0.5]];portConstraint=eastwest;top=0;left=0;right=0;bottom=1;strokeWidth=2;fontSize=13;" parent="C-vyLk0tnHw3VtMMgP7b-13" vertex="1"><mxGeometry y="30" width="305" height="30" as="geometry"/></mxCell><mxCell id="C-vyLk0tnHw3VtMMgP7b-15" value="PK" style="shape=partialRectangle;overflow=hidden;connectable=0;fillColor=none;top=0;left=0;bottom=0;right=0;fontStyle=1;strokeWidth=2;fontSize=13;" parent="C-vyLk0tnHw3VtMMgP7b-14" vertex="1"><mxGeometry width="30" height="30" as="geometry"><mxRectangle width="30" height="30" as="alternateBounds"/></mxGeometry></mxCell><mxCell id="C-vyLk0tnHw3VtMMgP7b-16" value="id" style="shape=partialRectangle;overflow=hidden;connectable=0;fillColor=none;top=0;left=0;bottom=0;right=0;align=left;spacingLeft=6;fontStyle=5;strokeWidth=2;fontSize=13;" parent="C-vyLk0tnHw3VtMMgP7b-14" vertex="1"><mxGeometry x="30" width="115" height="30" as="geometry"><mxRectangle width="115" height="30" as="alternateBounds"/></mxGeometry></mxCell><mxCell id="81FpT_z5o81s3ywpVhld-1" value="BIG SERIAL NOT NULL" style="shape=partialRectangle;overflow=hidden;connectable=0;fillColor=none;top=0;left=0;bottom=0;right=0;align=left;spacingLeft=6;fontStyle=0;strokeWidth=2;fontSize=13;" parent="C-vyLk0tnHw3VtMMgP7b-14" vertex="1"><mxGeometry x="145" width="160" height="30" as="geometry"><mxRectangle width="160" height="30" as="alternateBounds"/></mxGeometry></mxCell><mxCell id="C-vyLk0tnHw3VtMMgP7b-17" value="" style="shape=partialRectangle;collapsible=0;dropTarget=0;pointerEvents=0;fillColor=none;points=[[0,0.5],[1,0.5]];portConstraint=eastwest;top=0;left=0;right=0;bottom=0;strokeWidth=2;fontSize=13;" parent="C-vyLk0tnHw3VtMMgP7b-13" vertex="1"><mxGeometry y="60" width="305" height="30" as="geometry"/></mxCell><mxCell id="C-vyLk0tnHw3VtMMgP7b-18" value="" style="shape=partialRectangle;overflow=hidden;connectable=0;fillColor=none;top=0;left=0;bottom=0;right=0;strokeWidth=2;fontSize=13;" parent="C-vyLk0tnHw3VtMMgP7b-17" vertex="1"><mxGeometry width="30" height="30" as="geometry"><mxRectangle width="30" height="30" as="alternateBounds"/></mxGeometry></mxCell><mxCell id="C-vyLk0tnHw3VtMMgP7b-19" value="category_name" style="shape=partialRectangle;overflow=hidden;connectable=0;fillColor=none;top=0;left=0;bottom=0;right=0;align=left;spacingLeft=6;strokeWidth=2;fontSize=13;" parent="C-vyLk0tnHw3VtMMgP7b-17" vertex="1"><mxGeometry x="30" width="115" height="30" as="geometry"><mxRectangle width="115" height="30" as="alternateBounds"/></mxGeometry></mxCell><mxCell id="81FpT_z5o81s3ywpVhld-2" value="TEXT NOT NULL" style="shape=partialRectangle;overflow=hidden;connectable=0;fillColor=none;top=0;left=0;bottom=0;right=0;align=left;spacingLeft=6;strokeWidth=2;fontSize=13;" parent="C-vyLk0tnHw3VtMMgP7b-17" vertex="1"><mxGeometry x="145" width="160" height="30" as="geometry"><mxRectangle width="160" height="30" as="alternateBounds"/></mxGeometry></mxCell><mxCell id="e4y07ZTummI6uixQoZiz-23" style="edgeStyle=orthogonalEdgeStyle;rounded=0;orthogonalLoop=1;jettySize=auto;html=1;endArrow=ERzeroToMany;endFill=0;startArrow=ERmandOne;startFill=0;strokeWidth=2;" parent="1" source="C-vyLk0tnHw3VtMMgP7b-23" target="e4y07ZTummI6uixQoZiz-1" edge="1"><mxGeometry relative="1" as="geometry"/></mxCell><mxCell id="C-vyLk0tnHw3VtMMgP7b-23" value="Customer" style="shape=table;startSize=30;container=1;collapsible=1;childLayout=tableLayout;fixedRows=1;rowLines=0;fontStyle=1;align=center;resizeLast=1;strokeWidth=2;fontSize=13;" parent="1" vertex="1"><mxGeometry x="-155" y="30" width="280" height="170" as="geometry"/></mxCell><mxCell id="C-vyLk0tnHw3VtMMgP7b-24" value="" style="shape=partialRectangle;collapsible=0;dropTarget=0;pointerEvents=0;fillColor=none;points=[[0,0.5],[1,0.5]];portConstraint=eastwest;top=0;left=0;right=0;bottom=1;strokeWidth=2;fontSize=13;" parent="C-vyLk0tnHw3VtMMgP7b-23" vertex="1"><mxGeometry y="30" width="280" height="40" as="geometry"/></mxCell><mxCell id="C-vyLk0tnHw3VtMMgP7b-25" value="PK" style="shape=partialRectangle;overflow=hidden;connectable=0;fillColor=none;top=0;left=0;bottom=0;right=0;fontStyle=1;strokeWidth=2;fontSize=13;" parent="C-vyLk0tnHw3VtMMgP7b-24" vertex="1"><mxGeometry width="30" height="40" as="geometry"><mxRectangle width="30" height="40" as="alternateBounds"/></mxGeometry></mxCell><mxCell id="C-vyLk0tnHw3VtMMgP7b-26" value="id" style="shape=partialRectangle;overflow=hidden;connectable=0;fillColor=none;top=0;left=0;bottom=0;right=0;align=left;spacingLeft=6;fontStyle=5;strokeWidth=2;fontSize=13;" parent="C-vyLk0tnHw3VtMMgP7b-24" vertex="1"><mxGeometry x="30" width="80" height="40" as="geometry"><mxRectangle width="80" height="40" as="alternateBounds"/></mxGeometry></mxCell><mxCell id="_qmN48agiN7q7MSuu_BF-15" value="BIG SERIAL NOT NULL" style="shape=partialRectangle;overflow=hidden;connectable=0;fillColor=none;top=0;left=0;bottom=0;right=0;align=left;spacingLeft=6;fontStyle=1;strokeWidth=2;fontSize=13;" parent="C-vyLk0tnHw3VtMMgP7b-24" vertex="1"><mxGeometry x="110" width="170" height="40" as="geometry"><mxRectangle width="170" height="40" as="alternateBounds"/></mxGeometry></mxCell><mxCell id="C-vyLk0tnHw3VtMMgP7b-27" value="" style="shape=partialRectangle;collapsible=0;dropTarget=0;pointerEvents=0;fillColor=none;points=[[0,0.5],[1,0.5]];portConstraint=eastwest;top=0;left=0;right=0;bottom=0;strokeWidth=2;fontSize=13;" parent="C-vyLk0tnHw3VtMMgP7b-23" vertex="1"><mxGeometry y="70" width="280" height="30" as="geometry"/></mxCell><mxCell id="C-vyLk0tnHw3VtMMgP7b-28" value="UN" style="shape=partialRectangle;overflow=hidden;connectable=0;fillColor=none;top=0;left=0;bottom=0;right=0;strokeWidth=2;fontSize=13;align=center;verticalAlign=top;" parent="C-vyLk0tnHw3VtMMgP7b-27" vertex="1"><mxGeometry width="30" height="30" as="geometry"><mxRectangle width="30" height="30" as="alternateBounds"/></mxGeometry></mxCell><mxCell id="C-vyLk0tnHw3VtMMgP7b-29" value="user_name" style="shape=partialRectangle;overflow=hidden;connectable=0;fillColor=none;top=0;left=0;bottom=0;right=0;align=left;spacingLeft=6;strokeWidth=2;fontSize=13;" parent="C-vyLk0tnHw3VtMMgP7b-27" vertex="1"><mxGeometry x="30" width="80" height="30" as="geometry"><mxRectangle width="80" height="30" as="alternateBounds"/></mxGeometry></mxCell><mxCell id="_qmN48agiN7q7MSuu_BF-16" value="TEXT NOT NULL" style="shape=partialRectangle;overflow=hidden;connectable=0;fillColor=none;top=0;left=0;bottom=0;right=0;align=left;spacingLeft=6;strokeWidth=2;fontSize=13;" parent="C-vyLk0tnHw3VtMMgP7b-27" vertex="1"><mxGeometry x="110" width="170" height="30" as="geometry"><mxRectangle width="170" height="30" as="alternateBounds"/></mxGeometry></mxCell><mxCell id="_qmN48agiN7q7MSuu_BF-17" style="shape=partialRectangle;collapsible=0;dropTarget=0;pointerEvents=0;fillColor=none;points=[[0,0.5],[1,0.5]];portConstraint=eastwest;top=0;left=0;right=0;bottom=0;strokeWidth=2;fontSize=13;" parent="C-vyLk0tnHw3VtMMgP7b-23" vertex="1"><mxGeometry y="100" width="280" height="20" as="geometry"/></mxCell><mxCell id="_qmN48agiN7q7MSuu_BF-18" style="shape=partialRectangle;overflow=hidden;connectable=0;fillColor=none;top=0;left=0;bottom=0;right=0;strokeWidth=2;fontSize=13;align=center;verticalAlign=top;" parent="_qmN48agiN7q7MSuu_BF-17" vertex="1"><mxGeometry width="30" height="20" as="geometry"><mxRectangle width="30" height="20" as="alternateBounds"/></mxGeometry></mxCell><mxCell id="_qmN48agiN7q7MSuu_BF-19" value="full_name" style="shape=partialRectangle;overflow=hidden;connectable=0;fillColor=none;top=0;left=0;bottom=0;right=0;align=left;spacingLeft=6;strokeWidth=2;fontSize=13;" parent="_qmN48agiN7q7MSuu_BF-17" vertex="1"><mxGeometry x="30" width="80" height="20" as="geometry"><mxRectangle width="80" height="20" as="alternateBounds"/></mxGeometry></mxCell><mxCell id="_qmN48agiN7q7MSuu_BF-20" value="TEXT NOT NULL" style="shape=partialRectangle;overflow=hidden;connectable=0;fillColor=none;top=0;left=0;bottom=0;right=0;align=left;spacingLeft=6;strokeWidth=2;fontSize=13;" parent="_qmN48agiN7q7MSuu_BF-17" vertex="1"><mxGeometry x="110" width="170" height="20" as="geometry"><mxRectangle width="170" height="20" as="alternateBounds"/></mxGeometry></mxCell><mxCell id="_qmN48agiN7q7MSuu_BF-21" style="shape=partialRectangle;collapsible=0;dropTarget=0;pointerEvents=0;fillColor=none;points=[[0,0.5],[1,0.5]];portConstraint=eastwest;top=0;left=0;right=0;bottom=0;strokeWidth=2;fontSize=13;" parent="C-vyLk0tnHw3VtMMgP7b-23" vertex="1"><mxGeometry y="120" width="280" height="30" as="geometry"/></mxCell><mxCell id="_qmN48agiN7q7MSuu_BF-22" style="shape=partialRectangle;overflow=hidden;connectable=0;fillColor=none;top=0;left=0;bottom=0;right=0;strokeWidth=2;fontSize=13;align=center;verticalAlign=top;" parent="_qmN48agiN7q7MSuu_BF-21" vertex="1"><mxGeometry width="30" height="30" as="geometry"><mxRectangle width="30" height="30" as="alternateBounds"/></mxGeometry></mxCell><mxCell id="_qmN48agiN7q7MSuu_BF-23" value="password" style="shape=partialRectangle;overflow=hidden;connectable=0;fillColor=none;top=0;left=0;bottom=0;right=0;align=left;spacingLeft=6;strokeWidth=2;fontSize=13;" parent="_qmN48agiN7q7MSuu_BF-21" vertex="1"><mxGeometry x="30" width="80" height="30" as="geometry"><mxRectangle width="80" height="30" as="alternateBounds"/></mxGeometry></mxCell><mxCell id="_qmN48agiN7q7MSuu_BF-24" value="TEXT NOT NULL" style="shape=partialRectangle;overflow=hidden;connectable=0;fillColor=none;top=0;left=0;bottom=0;right=0;align=left;spacingLeft=6;strokeWidth=2;fontSize=13;" parent="_qmN48agiN7q7MSuu_BF-21" vertex="1"><mxGeometry x="110" width="170" height="30" as="geometry"><mxRectangle width="170" height="30" as="alternateBounds"/></mxGeometry></mxCell><mxCell id="_qmN48agiN7q7MSuu_BF-25" style="shape=partialRectangle;collapsible=0;dropTarget=0;pointerEvents=0;fillColor=none;points=[[0,0.5],[1,0.5]];portConstraint=eastwest;top=0;left=0;right=0;bottom=0;strokeWidth=2;fontSize=13;" parent="C-vyLk0tnHw3VtMMgP7b-23" vertex="1"><mxGeometry y="150" width="280" height="20" as="geometry"/></mxCell><mxCell id="_qmN48agiN7q7MSuu_BF-26" style="shape=partialRectangle;overflow=hidden;connectable=0;fillColor=none;top=0;left=0;bottom=0;right=0;strokeWidth=2;fontSize=13;align=center;verticalAlign=top;" parent="_qmN48agiN7q7MSuu_BF-25" vertex="1"><mxGeometry width="30" height="20" as="geometry"><mxRectangle width="30" height="20" as="alternateBounds"/></mxGeometry></mxCell><mxCell id="_qmN48agiN7q7MSuu_BF-27" value="created_at" style="shape=partialRectangle;overflow=hidden;connectable=0;fillColor=none;top=0;left=0;bottom=0;right=0;align=left;spacingLeft=6;strokeWidth=2;fontSize=13;" parent="_qmN48agiN7q7MSuu_BF-25" vertex="1"><mxGeometry x="30" width="80" height="20" as="geometry"><mxRectangle width="80" height="20" as="alternateBounds"/></mxGeometry></mxCell><mxCell id="_qmN48agiN7q7MSuu_BF-28" value="TIMESTAMP NOT NULL" style="shape=partialRectangle;overflow=hidden;connectable=0;fillColor=none;top=0;left=0;bottom=0;right=0;align=left;spacingLeft=6;strokeWidth=2;fontSize=13;" parent="_qmN48agiN7q7MSuu_BF-25" vertex="1"><mxGeometry x="110" width="170" height="20" as="geometry"><mxRectangle width="170" height="20" as="alternateBounds"/></mxGeometry></mxCell><mxCell id="e4y07ZTummI6uixQoZiz-49" value="" style="edgeStyle=orthogonalEdgeStyle;rounded=0;orthogonalLoop=1;jettySize=auto;html=1;startArrow=ERmandOne;startFill=0;endArrow=ERoneToMany;endFill=0;entryX=0.5;entryY=0;entryDx=0;entryDy=0;strokeWidth=2;" parent="1" source="e4y07ZTummI6uixQoZiz-1" target="e4y07ZTummI6uixQoZiz-24" edge="1"><mxGeometry relative="1" as="geometry"/></mxCell><mxCell id="e4y07ZTummI6uixQoZiz-1" value="Orders" style="shape=table;startSize=30;container=1;collapsible=1;childLayout=tableLayout;fixedRows=1;rowLines=0;fontStyle=1;align=center;resizeLast=1;strokeWidth=2;fontSize=13;" parent="1" vertex="1"><mxGeometry x="-200" y="300" width="369.9999999999999" height="210" as="geometry"/></mxCell><mxCell id="e4y07ZTummI6uixQoZiz-2" value="" style="shape=partialRectangle;collapsible=0;dropTarget=0;pointerEvents=0;fillColor=none;points=[[0,0.5],[1,0.5]];portConstraint=eastwest;top=0;left=0;right=0;bottom=1;strokeWidth=2;fontSize=13;" parent="e4y07ZTummI6uixQoZiz-1" vertex="1"><mxGeometry y="30" width="369.9999999999999" height="40" as="geometry"/></mxCell><mxCell id="e4y07ZTummI6uixQoZiz-3" value="PK" style="shape=partialRectangle;overflow=hidden;connectable=0;fillColor=none;top=0;left=0;bottom=0;right=0;fontStyle=1;strokeWidth=2;fontSize=13;" parent="e4y07ZTummI6uixQoZiz-2" vertex="1"><mxGeometry width="30" height="40" as="geometry"><mxRectangle width="30" height="40" as="alternateBounds"/></mxGeometry></mxCell><mxCell id="e4y07ZTummI6uixQoZiz-4" value="id" style="shape=partialRectangle;overflow=hidden;connectable=0;fillColor=none;top=0;left=0;bottom=0;right=0;align=left;spacingLeft=6;fontStyle=5;strokeWidth=2;fontSize=13;" parent="e4y07ZTummI6uixQoZiz-2" vertex="1"><mxGeometry x="30" width="159.9999999999999" height="40" as="geometry"><mxRectangle width="159.9999999999999" height="40" as="alternateBounds"/></mxGeometry></mxCell><mxCell id="e4y07ZTummI6uixQoZiz-5" value="BIG SERIAL NOT NULL" style="shape=partialRectangle;overflow=hidden;connectable=0;fillColor=none;top=0;left=0;bottom=0;right=0;align=left;spacingLeft=6;fontStyle=1;strokeWidth=2;fontSize=13;" parent="e4y07ZTummI6uixQoZiz-2" vertex="1"><mxGeometry x="189.9999999999999" width="180" height="40" as="geometry"><mxRectangle width="180" height="40" as="alternateBounds"/></mxGeometry></mxCell><mxCell id="e4y07ZTummI6uixQoZiz-6" value="" style="shape=partialRectangle;collapsible=0;dropTarget=0;pointerEvents=0;fillColor=none;points=[[0,0.5],[1,0.5]];portConstraint=eastwest;top=0;left=0;right=0;bottom=0;strokeWidth=2;fontSize=13;" parent="e4y07ZTummI6uixQoZiz-1" vertex="1"><mxGeometry y="70" width="369.9999999999999" height="30" as="geometry"/></mxCell><mxCell id="e4y07ZTummI6uixQoZiz-7" value="" style="shape=partialRectangle;overflow=hidden;connectable=0;fillColor=none;top=0;left=0;bottom=0;right=0;strokeWidth=2;fontSize=13;align=center;verticalAlign=top;" parent="e4y07ZTummI6uixQoZiz-6" vertex="1"><mxGeometry width="30" height="30" as="geometry"><mxRectangle width="30" height="30" as="alternateBounds"/></mxGeometry></mxCell><mxCell id="e4y07ZTummI6uixQoZiz-8" value="order_tracking_number" style="shape=partialRectangle;overflow=hidden;connectable=0;fillColor=none;top=0;left=0;bottom=0;right=0;align=left;spacingLeft=6;strokeWidth=2;fontSize=13;" parent="e4y07ZTummI6uixQoZiz-6" vertex="1"><mxGeometry x="30" width="159.9999999999999" height="30" as="geometry"><mxRectangle width="159.9999999999999" height="30" as="alternateBounds"/></mxGeometry></mxCell><mxCell id="e4y07ZTummI6uixQoZiz-9" value="TEXT NOT NULL" style="shape=partialRectangle;overflow=hidden;connectable=0;fillColor=none;top=0;left=0;bottom=0;right=0;align=left;spacingLeft=6;strokeWidth=2;fontSize=13;" parent="e4y07ZTummI6uixQoZiz-6" vertex="1"><mxGeometry x="189.9999999999999" width="180" height="30" as="geometry"><mxRectangle width="180" height="30" as="alternateBounds"/></mxGeometry></mxCell><mxCell id="e4y07ZTummI6uixQoZiz-10" style="shape=partialRectangle;collapsible=0;dropTarget=0;pointerEvents=0;fillColor=none;points=[[0,0.5],[1,0.5]];portConstraint=eastwest;top=0;left=0;right=0;bottom=0;strokeWidth=2;fontSize=13;" parent="e4y07ZTummI6uixQoZiz-1" vertex="1"><mxGeometry y="100" width="369.9999999999999" height="20" as="geometry"/></mxCell><mxCell id="e4y07ZTummI6uixQoZiz-11" style="shape=partialRectangle;overflow=hidden;connectable=0;fillColor=none;top=0;left=0;bottom=0;right=0;strokeWidth=2;fontSize=13;align=center;verticalAlign=top;" parent="e4y07ZTummI6uixQoZiz-10" vertex="1"><mxGeometry width="30" height="20" as="geometry"><mxRectangle width="30" height="20" as="alternateBounds"/></mxGeometry></mxCell><mxCell id="e4y07ZTummI6uixQoZiz-12" value="total_price" style="shape=partialRectangle;overflow=hidden;connectable=0;fillColor=none;top=0;left=0;bottom=0;right=0;align=left;spacingLeft=6;strokeWidth=2;fontSize=13;" parent="e4y07ZTummI6uixQoZiz-10" vertex="1"><mxGeometry x="30" width="159.9999999999999" height="20" as="geometry"><mxRectangle width="159.9999999999999" height="20" as="alternateBounds"/></mxGeometry></mxCell><mxCell id="e4y07ZTummI6uixQoZiz-13" value="DECIMAL" style="shape=partialRectangle;overflow=hidden;connectable=0;fillColor=none;top=0;left=0;bottom=0;right=0;align=left;spacingLeft=6;strokeWidth=2;fontSize=13;" parent="e4y07ZTummI6uixQoZiz-10" vertex="1"><mxGeometry x="189.9999999999999" width="180" height="20" as="geometry"><mxRectangle width="180" height="20" as="alternateBounds"/></mxGeometry></mxCell><mxCell id="e4y07ZTummI6uixQoZiz-14" style="shape=partialRectangle;collapsible=0;dropTarget=0;pointerEvents=0;fillColor=none;points=[[0,0.5],[1,0.5]];portConstraint=eastwest;top=0;left=0;right=0;bottom=0;strokeWidth=2;fontSize=13;" parent="e4y07ZTummI6uixQoZiz-1" vertex="1"><mxGeometry y="120" width="369.9999999999999" height="30" as="geometry"/></mxCell><mxCell id="e4y07ZTummI6uixQoZiz-15" value="FK" style="shape=partialRectangle;overflow=hidden;connectable=0;fillColor=none;top=0;left=0;bottom=0;right=0;strokeWidth=2;fontSize=13;align=center;verticalAlign=top;" parent="e4y07ZTummI6uixQoZiz-14" vertex="1"><mxGeometry width="30" height="30" as="geometry"><mxRectangle width="30" height="30" as="alternateBounds"/></mxGeometry></mxCell><mxCell id="e4y07ZTummI6uixQoZiz-16" value="customer_id" style="shape=partialRectangle;overflow=hidden;connectable=0;fillColor=none;top=0;left=0;bottom=0;right=0;align=left;spacingLeft=6;strokeWidth=2;fontSize=13;" parent="e4y07ZTummI6uixQoZiz-14" vertex="1"><mxGeometry x="30" width="159.9999999999999" height="30" as="geometry"><mxRectangle width="159.9999999999999" height="30" as="alternateBounds"/></mxGeometry></mxCell><mxCell id="e4y07ZTummI6uixQoZiz-17" value="BIGINT NOT NULL" style="shape=partialRectangle;overflow=hidden;connectable=0;fillColor=none;top=0;left=0;bottom=0;right=0;align=left;spacingLeft=6;strokeWidth=2;fontSize=13;" parent="e4y07ZTummI6uixQoZiz-14" vertex="1"><mxGeometry x="189.9999999999999" width="180" height="30" as="geometry"><mxRectangle width="180" height="30" as="alternateBounds"/></mxGeometry></mxCell><mxCell id="30" style="shape=partialRectangle;collapsible=0;dropTarget=0;pointerEvents=0;fillColor=none;points=[[0,0.5],[1,0.5]];portConstraint=eastwest;top=0;left=0;right=0;bottom=0;strokeWidth=2;fontSize=13;" parent="e4y07ZTummI6uixQoZiz-1" vertex="1"><mxGeometry y="150" width="369.9999999999999" height="30" as="geometry"/></mxCell><mxCell id="31" style="shape=partialRectangle;overflow=hidden;connectable=0;fillColor=none;top=0;left=0;bottom=0;right=0;strokeWidth=2;fontSize=13;align=center;verticalAlign=top;" parent="30" vertex="1"><mxGeometry width="30" height="30" as="geometry"><mxRectangle width="30" height="30" as="alternateBounds"/></mxGeometry></mxCell><mxCell id="32" value="total_quantity" style="shape=partialRectangle;overflow=hidden;connectable=0;fillColor=none;top=0;left=0;bottom=0;right=0;align=left;spacingLeft=6;strokeWidth=2;fontSize=13;" parent="30" vertex="1"><mxGeometry x="30" width="159.9999999999999" height="30" as="geometry"><mxRectangle width="159.9999999999999" height="30" as="alternateBounds"/></mxGeometry></mxCell><mxCell id="33" value="BIGINT NOT NULL" style="shape=partialRectangle;overflow=hidden;connectable=0;fillColor=none;top=0;left=0;bottom=0;right=0;align=left;spacingLeft=6;strokeWidth=2;fontSize=13;" parent="30" vertex="1"><mxGeometry x="189.9999999999999" width="180" height="30" as="geometry"><mxRectangle width="180" height="30" as="alternateBounds"/></mxGeometry></mxCell><mxCell id="38" style="shape=partialRectangle;collapsible=0;dropTarget=0;pointerEvents=0;fillColor=none;points=[[0,0.5],[1,0.5]];portConstraint=eastwest;top=0;left=0;right=0;bottom=0;strokeWidth=2;fontSize=13;" parent="e4y07ZTummI6uixQoZiz-1" vertex="1"><mxGeometry y="180" width="369.9999999999999" height="30" as="geometry"/></mxCell><mxCell id="39" style="shape=partialRectangle;overflow=hidden;connectable=0;fillColor=none;top=0;left=0;bottom=0;right=0;strokeWidth=2;fontSize=13;align=center;verticalAlign=top;" parent="38" vertex="1"><mxGeometry width="30" height="30" as="geometry"><mxRectangle width="30" height="30" as="alternateBounds"/></mxGeometry></mxCell><mxCell id="40" value="created_at" style="shape=partialRectangle;overflow=hidden;connectable=0;fillColor=none;top=0;left=0;bottom=0;right=0;align=left;spacingLeft=6;strokeWidth=2;fontSize=13;" parent="38" vertex="1"><mxGeometry x="30" width="159.9999999999999" height="30" as="geometry"><mxRectangle width="159.9999999999999" height="30" as="alternateBounds"/></mxGeometry></mxCell><mxCell id="41" value="TIMESTAMP NOT NULL" style="shape=partialRectangle;overflow=hidden;connectable=0;fillColor=none;top=0;left=0;bottom=0;right=0;align=left;spacingLeft=6;strokeWidth=2;fontSize=13;" parent="38" vertex="1"><mxGeometry x="189.9999999999999" width="180" height="30" as="geometry"><mxRectangle width="180" height="30" as="alternateBounds"/></mxGeometry></mxCell><mxCell id="m5DX0oas21MvtNNB5xuf-5" style="edgeStyle=orthogonalEdgeStyle;rounded=0;orthogonalLoop=1;jettySize=auto;html=1;entryX=0;entryY=0.5;entryDx=0;entryDy=0;endArrow=ERoneToMany;endFill=0;strokeWidth=2;" parent="1" source="e4y07ZTummI6uixQoZiz-24" target="_qmN48agiN7q7MSuu_BF-5" edge="1"><mxGeometry relative="1" as="geometry"><Array as="points"><mxPoint x="250" y="625"/><mxPoint x="250" y="415"/></Array></mxGeometry></mxCell><mxCell id="e4y07ZTummI6uixQoZiz-24" value="Order_Item" style="shape=table;startSize=30;container=1;collapsible=1;childLayout=tableLayout;fixedRows=1;rowLines=0;fontStyle=1;align=center;resizeLast=1;strokeWidth=2;fontSize=13;" parent="1" vertex="1"><mxGeometry x="-170" y="590" width="310" height="210" as="geometry"/></mxCell><mxCell id="e4y07ZTummI6uixQoZiz-25" value="" style="shape=partialRectangle;collapsible=0;dropTarget=0;pointerEvents=0;fillColor=none;points=[[0,0.5],[1,0.5]];portConstraint=eastwest;top=0;left=0;right=0;bottom=1;strokeWidth=2;fontSize=13;" parent="e4y07ZTummI6uixQoZiz-24" vertex="1"><mxGeometry y="30" width="310" height="40" as="geometry"/></mxCell><mxCell id="e4y07ZTummI6uixQoZiz-26" value="PK" style="shape=partialRectangle;overflow=hidden;connectable=0;fillColor=none;top=0;left=0;bottom=0;right=0;fontStyle=1;strokeWidth=2;fontSize=13;" parent="e4y07ZTummI6uixQoZiz-25" vertex="1"><mxGeometry width="30" height="40" as="geometry"><mxRectangle width="30" height="40" as="alternateBounds"/></mxGeometry></mxCell><mxCell id="e4y07ZTummI6uixQoZiz-27" value="id" style="shape=partialRectangle;overflow=hidden;connectable=0;fillColor=none;top=0;left=0;bottom=0;right=0;align=left;spacingLeft=6;fontStyle=5;strokeWidth=2;fontSize=13;" parent="e4y07ZTummI6uixQoZiz-25" vertex="1"><mxGeometry x="30" width="110" height="40" as="geometry"><mxRectangle width="110" height="40" as="alternateBounds"/></mxGeometry></mxCell><mxCell id="e4y07ZTummI6uixQoZiz-28" value="BIG SERIAL NOT NULL" style="shape=partialRectangle;overflow=hidden;connectable=0;fillColor=none;top=0;left=0;bottom=0;right=0;align=left;spacingLeft=6;fontStyle=1;strokeWidth=2;fontSize=13;" parent="e4y07ZTummI6uixQoZiz-25" vertex="1"><mxGeometry x="140" width="170" height="40" as="geometry"><mxRectangle width="170" height="40" as="alternateBounds"/></mxGeometry></mxCell><mxCell id="e4y07ZTummI6uixQoZiz-29" value="" style="shape=partialRectangle;collapsible=0;dropTarget=0;pointerEvents=0;fillColor=none;points=[[0,0.5],[1,0.5]];portConstraint=eastwest;top=0;left=0;right=0;bottom=0;strokeWidth=2;fontSize=13;" parent="e4y07ZTummI6uixQoZiz-24" vertex="1"><mxGeometry y="70" width="310" height="30" as="geometry"/></mxCell><mxCell id="e4y07ZTummI6uixQoZiz-30" value="" style="shape=partialRectangle;overflow=hidden;connectable=0;fillColor=none;top=0;left=0;bottom=0;right=0;strokeWidth=2;fontSize=13;align=center;verticalAlign=top;" parent="e4y07ZTummI6uixQoZiz-29" vertex="1"><mxGeometry width="30" height="30" as="geometry"><mxRectangle width="30" height="30" as="alternateBounds"/></mxGeometry></mxCell><mxCell id="e4y07ZTummI6uixQoZiz-31" value="product_name" style="shape=partialRectangle;overflow=hidden;connectable=0;fillColor=none;top=0;left=0;bottom=0;right=0;align=left;spacingLeft=6;strokeWidth=2;fontSize=13;" parent="e4y07ZTummI6uixQoZiz-29" vertex="1"><mxGeometry x="30" width="110" height="30" as="geometry"><mxRectangle width="110" height="30" as="alternateBounds"/></mxGeometry></mxCell><mxCell id="e4y07ZTummI6uixQoZiz-32" value="TEXT NOT NULL" style="shape=partialRectangle;overflow=hidden;connectable=0;fillColor=none;top=0;left=0;bottom=0;right=0;align=left;spacingLeft=6;strokeWidth=2;fontSize=13;" parent="e4y07ZTummI6uixQoZiz-29" vertex="1"><mxGeometry x="140" width="170" height="30" as="geometry"><mxRectangle width="170" height="30" as="alternateBounds"/></mxGeometry></mxCell><mxCell id="e4y07ZTummI6uixQoZiz-33" style="shape=partialRectangle;collapsible=0;dropTarget=0;pointerEvents=0;fillColor=none;points=[[0,0.5],[1,0.5]];portConstraint=eastwest;top=0;left=0;right=0;bottom=0;strokeWidth=2;fontSize=13;" parent="e4y07ZTummI6uixQoZiz-24" vertex="1"><mxGeometry y="100" width="310" height="20" as="geometry"/></mxCell><mxCell id="e4y07ZTummI6uixQoZiz-34" style="shape=partialRectangle;overflow=hidden;connectable=0;fillColor=none;top=0;left=0;bottom=0;right=0;strokeWidth=2;fontSize=13;align=center;verticalAlign=top;" parent="e4y07ZTummI6uixQoZiz-33" vertex="1"><mxGeometry width="30" height="20" as="geometry"><mxRectangle width="30" height="20" as="alternateBounds"/></mxGeometry></mxCell><mxCell id="e4y07ZTummI6uixQoZiz-35" value="product_price" style="shape=partialRectangle;overflow=hidden;connectable=0;fillColor=none;top=0;left=0;bottom=0;right=0;align=left;spacingLeft=6;strokeWidth=2;fontSize=13;" parent="e4y07ZTummI6uixQoZiz-33" vertex="1"><mxGeometry x="30" width="110" height="20" as="geometry"><mxRectangle width="110" height="20" as="alternateBounds"/></mxGeometry></mxCell><mxCell id="e4y07ZTummI6uixQoZiz-36" value="DECIMAL NOT NULL" style="shape=partialRectangle;overflow=hidden;connectable=0;fillColor=none;top=0;left=0;bottom=0;right=0;align=left;spacingLeft=6;strokeWidth=2;fontSize=13;" parent="e4y07ZTummI6uixQoZiz-33" vertex="1"><mxGeometry x="140" width="170" height="20" as="geometry"><mxRectangle width="170" height="20" as="alternateBounds"/></mxGeometry></mxCell><mxCell id="e4y07ZTummI6uixQoZiz-37" style="shape=partialRectangle;collapsible=0;dropTarget=0;pointerEvents=0;fillColor=none;points=[[0,0.5],[1,0.5]];portConstraint=eastwest;top=0;left=0;right=0;bottom=0;strokeWidth=2;fontSize=13;" parent="e4y07ZTummI6uixQoZiz-24" vertex="1"><mxGeometry y="120" width="310" height="30" as="geometry"/></mxCell><mxCell id="e4y07ZTummI6uixQoZiz-38" value="FK" style="shape=partialRectangle;overflow=hidden;connectable=0;fillColor=none;top=0;left=0;bottom=0;right=0;strokeWidth=2;fontSize=13;align=center;verticalAlign=top;" parent="e4y07ZTummI6uixQoZiz-37" vertex="1"><mxGeometry width="30" height="30" as="geometry"><mxRectangle width="30" height="30" as="alternateBounds"/></mxGeometry></mxCell><mxCell id="e4y07ZTummI6uixQoZiz-39" value="product_id" style="shape=partialRectangle;overflow=hidden;connectable=0;fillColor=none;top=0;left=0;bottom=0;right=0;align=left;spacingLeft=6;strokeWidth=2;fontSize=13;" parent="e4y07ZTummI6uixQoZiz-37" vertex="1"><mxGeometry x="30" width="110" height="30" as="geometry"><mxRectangle width="110" height="30" as="alternateBounds"/></mxGeometry></mxCell><mxCell id="e4y07ZTummI6uixQoZiz-40" value="BIGINT NOT NULL" style="shape=partialRectangle;overflow=hidden;connectable=0;fillColor=none;top=0;left=0;bottom=0;right=0;align=left;spacingLeft=6;strokeWidth=2;fontSize=13;" parent="e4y07ZTummI6uixQoZiz-37" vertex="1"><mxGeometry x="140" width="170" height="30" as="geometry"><mxRectangle width="170" height="30" as="alternateBounds"/></mxGeometry></mxCell><mxCell id="e4y07ZTummI6uixQoZiz-41" style="shape=partialRectangle;collapsible=0;dropTarget=0;pointerEvents=0;fillColor=none;points=[[0,0.5],[1,0.5]];portConstraint=eastwest;top=0;left=0;right=0;bottom=0;strokeWidth=2;fontSize=13;" parent="e4y07ZTummI6uixQoZiz-24" vertex="1"><mxGeometry y="150" width="310" height="30" as="geometry"/></mxCell><mxCell id="e4y07ZTummI6uixQoZiz-42" value="FK" style="shape=partialRectangle;overflow=hidden;connectable=0;fillColor=none;top=0;left=0;bottom=0;right=0;strokeWidth=2;fontSize=13;align=center;verticalAlign=top;" parent="e4y07ZTummI6uixQoZiz-41" vertex="1"><mxGeometry width="30" height="30" as="geometry"><mxRectangle width="30" height="30" as="alternateBounds"/></mxGeometry></mxCell><mxCell id="e4y07ZTummI6uixQoZiz-43" value="order_id" style="shape=partialRectangle;overflow=hidden;connectable=0;fillColor=none;top=0;left=0;bottom=0;right=0;align=left;spacingLeft=6;strokeWidth=2;fontSize=13;" parent="e4y07ZTummI6uixQoZiz-41" vertex="1"><mxGeometry x="30" width="110" height="30" as="geometry"><mxRectangle width="110" height="30" as="alternateBounds"/></mxGeometry></mxCell><mxCell id="e4y07ZTummI6uixQoZiz-44" value="BIGINT NOT NULL" style="shape=partialRectangle;overflow=hidden;connectable=0;fillColor=none;top=0;left=0;bottom=0;right=0;align=left;spacingLeft=6;strokeWidth=2;fontSize=13;" parent="e4y07ZTummI6uixQoZiz-41" vertex="1"><mxGeometry x="140" width="170" height="30" as="geometry"><mxRectangle width="170" height="30" as="alternateBounds"/></mxGeometry></mxCell><mxCell id="e4y07ZTummI6uixQoZiz-45" style="shape=partialRectangle;collapsible=0;dropTarget=0;pointerEvents=0;fillColor=none;points=[[0,0.5],[1,0.5]];portConstraint=eastwest;top=0;left=0;right=0;bottom=0;strokeWidth=2;fontSize=13;" parent="e4y07ZTummI6uixQoZiz-24" vertex="1"><mxGeometry y="180" width="310" height="30" as="geometry"/></mxCell><mxCell id="e4y07ZTummI6uixQoZiz-46" style="shape=partialRectangle;overflow=hidden;connectable=0;fillColor=none;top=0;left=0;bottom=0;right=0;strokeWidth=2;fontSize=13;align=center;verticalAlign=top;" parent="e4y07ZTummI6uixQoZiz-45" vertex="1"><mxGeometry width="30" height="30" as="geometry"><mxRectangle width="30" height="30" as="alternateBounds"/></mxGeometry></mxCell><mxCell id="e4y07ZTummI6uixQoZiz-47" value="quantity" style="shape=partialRectangle;overflow=hidden;connectable=0;fillColor=none;top=0;left=0;bottom=0;right=0;align=left;spacingLeft=6;strokeWidth=2;fontSize=13;" parent="e4y07ZTummI6uixQoZiz-45" vertex="1"><mxGeometry x="30" width="110" height="30" as="geometry"><mxRectangle width="110" height="30" as="alternateBounds"/></mxGeometry></mxCell><mxCell id="e4y07ZTummI6uixQoZiz-48" value="INT NOT NULL" style="shape=partialRectangle;overflow=hidden;connectable=0;fillColor=none;top=0;left=0;bottom=0;right=0;align=left;spacingLeft=6;strokeWidth=2;fontSize=13;" parent="e4y07ZTummI6uixQoZiz-45" vertex="1"><mxGeometry x="140" width="170" height="30" as="geometry"><mxRectangle width="170" height="30" as="alternateBounds"/></mxGeometry></mxCell><mxCell id="2" value="Address" style="shape=table;startSize=40;container=1;collapsible=1;childLayout=tableLayout;fixedRows=1;rowLines=0;fontStyle=1;align=center;resizeLast=1;strokeWidth=2;fontSize=13;" parent="1" vertex="1"><mxGeometry x="-650" y="280" width="280" height="200" as="geometry"/></mxCell><mxCell id="3" value="" style="shape=partialRectangle;collapsible=0;dropTarget=0;pointerEvents=0;fillColor=none;points=[[0,0.5],[1,0.5]];portConstraint=eastwest;top=0;left=0;right=0;bottom=1;strokeWidth=2;fontSize=13;" parent="2" vertex="1"><mxGeometry y="40" width="280" height="40" as="geometry"/></mxCell><mxCell id="4" value="PK" style="shape=partialRectangle;overflow=hidden;connectable=0;fillColor=none;top=0;left=0;bottom=0;right=0;fontStyle=1;strokeWidth=2;fontSize=13;" parent="3" vertex="1"><mxGeometry width="30" height="40" as="geometry"><mxRectangle width="30" height="40" as="alternateBounds"/></mxGeometry></mxCell><mxCell id="5" value="id" style="shape=partialRectangle;overflow=hidden;connectable=0;fillColor=none;top=0;left=0;bottom=0;right=0;align=left;spacingLeft=6;fontStyle=5;strokeWidth=2;fontSize=13;" parent="3" vertex="1"><mxGeometry x="30" width="80" height="40" as="geometry"><mxRectangle width="80" height="40" as="alternateBounds"/></mxGeometry></mxCell><mxCell id="6" value="BIG SERIAL NOT NULL" style="shape=partialRectangle;overflow=hidden;connectable=0;fillColor=none;top=0;left=0;bottom=0;right=0;align=left;spacingLeft=6;fontStyle=1;strokeWidth=2;fontSize=13;" parent="3" vertex="1"><mxGeometry x="110" width="170" height="40" as="geometry"><mxRectangle width="170" height="40" as="alternateBounds"/></mxGeometry></mxCell><mxCell id="7" value="" style="shape=partialRectangle;collapsible=0;dropTarget=0;pointerEvents=0;fillColor=none;points=[[0,0.5],[1,0.5]];portConstraint=eastwest;top=0;left=0;right=0;bottom=0;strokeWidth=2;fontSize=13;" parent="2" vertex="1"><mxGeometry y="80" width="280" height="30" as="geometry"/></mxCell><mxCell id="8" value="" style="shape=partialRectangle;overflow=hidden;connectable=0;fillColor=none;top=0;left=0;bottom=0;right=0;strokeWidth=2;fontSize=13;align=center;verticalAlign=top;" parent="7" vertex="1"><mxGeometry width="30" height="30" as="geometry"><mxRectangle width="30" height="30" as="alternateBounds"/></mxGeometry></mxCell><mxCell id="9" value="city" style="shape=partialRectangle;overflow=hidden;connectable=0;fillColor=none;top=0;left=0;bottom=0;right=0;align=left;spacingLeft=6;strokeWidth=2;fontSize=13;" parent="7" vertex="1"><mxGeometry x="30" width="80" height="30" as="geometry"><mxRectangle width="80" height="30" as="alternateBounds"/></mxGeometry></mxCell><mxCell id="10" value="TEXT NOT NULL" style="shape=partialRectangle;overflow=hidden;connectable=0;fillColor=none;top=0;left=0;bottom=0;right=0;align=left;spacingLeft=6;strokeWidth=2;fontSize=13;" parent="7" vertex="1"><mxGeometry x="110" width="170" height="30" as="geometry"><mxRectangle width="170" height="30" as="alternateBounds"/></mxGeometry></mxCell><mxCell id="11" style="shape=partialRectangle;collapsible=0;dropTarget=0;pointerEvents=0;fillColor=none;points=[[0,0.5],[1,0.5]];portConstraint=eastwest;top=0;left=0;right=0;bottom=0;strokeWidth=2;fontSize=13;" parent="2" vertex="1"><mxGeometry y="110" width="280" height="20" as="geometry"/></mxCell><mxCell id="12" style="shape=partialRectangle;overflow=hidden;connectable=0;fillColor=none;top=0;left=0;bottom=0;right=0;strokeWidth=2;fontSize=13;align=center;verticalAlign=top;" parent="11" vertex="1"><mxGeometry width="30" height="20" as="geometry"><mxRectangle width="30" height="20" as="alternateBounds"/></mxGeometry></mxCell><mxCell id="13" value="country" style="shape=partialRectangle;overflow=hidden;connectable=0;fillColor=none;top=0;left=0;bottom=0;right=0;align=left;spacingLeft=6;strokeWidth=2;fontSize=13;" parent="11" vertex="1"><mxGeometry x="30" width="80" height="20" as="geometry"><mxRectangle width="80" height="20" as="alternateBounds"/></mxGeometry></mxCell><mxCell id="14" value="TEXT NOT NULL" style="shape=partialRectangle;overflow=hidden;connectable=0;fillColor=none;top=0;left=0;bottom=0;right=0;align=left;spacingLeft=6;strokeWidth=2;fontSize=13;" parent="11" vertex="1"><mxGeometry x="110" width="170" height="20" as="geometry"><mxRectangle width="170" height="20" as="alternateBounds"/></mxGeometry></mxCell><mxCell id="15" style="shape=partialRectangle;collapsible=0;dropTarget=0;pointerEvents=0;fillColor=none;points=[[0,0.5],[1,0.5]];portConstraint=eastwest;top=0;left=0;right=0;bottom=0;strokeWidth=2;fontSize=13;" parent="2" vertex="1"><mxGeometry y="130" width="280" height="30" as="geometry"/></mxCell><mxCell id="16" style="shape=partialRectangle;overflow=hidden;connectable=0;fillColor=none;top=0;left=0;bottom=0;right=0;strokeWidth=2;fontSize=13;align=center;verticalAlign=top;" parent="15" vertex="1"><mxGeometry width="30" height="30" as="geometry"><mxRectangle width="30" height="30" as="alternateBounds"/></mxGeometry></mxCell><mxCell id="17" value="state" style="shape=partialRectangle;overflow=hidden;connectable=0;fillColor=none;top=0;left=0;bottom=0;right=0;align=left;spacingLeft=6;strokeWidth=2;fontSize=13;" parent="15" vertex="1"><mxGeometry x="30" width="80" height="30" as="geometry"><mxRectangle width="80" height="30" as="alternateBounds"/></mxGeometry></mxCell><mxCell id="18" value="TEXT NOT NULL" style="shape=partialRectangle;overflow=hidden;connectable=0;fillColor=none;top=0;left=0;bottom=0;right=0;align=left;spacingLeft=6;strokeWidth=2;fontSize=13;" parent="15" vertex="1"><mxGeometry x="110" width="170" height="30" as="geometry"><mxRectangle width="170" height="30" as="alternateBounds"/></mxGeometry></mxCell><mxCell id="19" style="shape=partialRectangle;collapsible=0;dropTarget=0;pointerEvents=0;fillColor=none;points=[[0,0.5],[1,0.5]];portConstraint=eastwest;top=0;left=0;right=0;bottom=0;strokeWidth=2;fontSize=13;" parent="2" vertex="1"><mxGeometry y="160" width="280" height="20" as="geometry"/></mxCell><mxCell id="20" value="&#10;&lt;span style=&quot;color: rgb(240, 240, 240); font-family: Helvetica; font-size: 13px; font-style: normal; font-variant-ligatures: normal; font-variant-caps: normal; font-weight: 400; letter-spacing: normal; orphans: 2; text-align: left; text-indent: 0px; text-transform: none; widows: 2; word-spacing: 0px; -webkit-text-stroke-width: 0px; background-color: rgb(42, 42, 42); text-decoration-thickness: initial; text-decoration-style: initial; text-decoration-color: initial; float: none; display: inline !important;&quot;&gt;TEXT NOT NULL&lt;/span&gt;&#10;&#10;" style="shape=partialRectangle;overflow=hidden;connectable=0;fillColor=none;top=0;left=0;bottom=0;right=0;strokeWidth=2;fontSize=13;align=center;verticalAlign=top;" parent="19" vertex="1"><mxGeometry width="30" height="20" as="geometry"><mxRectangle width="30" height="20" as="alternateBounds"/></mxGeometry></mxCell><mxCell id="21" value="street" style="shape=partialRectangle;overflow=hidden;connectable=0;fillColor=none;top=0;left=0;bottom=0;right=0;align=left;spacingLeft=6;strokeWidth=2;fontSize=13;" parent="19" vertex="1"><mxGeometry x="30" width="80" height="20" as="geometry"><mxRectangle width="80" height="20" as="alternateBounds"/></mxGeometry></mxCell><mxCell id="22" value="TEXT NOT NULL" style="shape=partialRectangle;overflow=hidden;connectable=0;fillColor=none;top=0;left=0;bottom=0;right=0;align=left;spacingLeft=6;strokeWidth=2;fontSize=13;" parent="19" vertex="1"><mxGeometry x="110" width="170" height="20" as="geometry"><mxRectangle width="170" height="20" as="alternateBounds"/></mxGeometry></mxCell><mxCell id="23" style="shape=partialRectangle;collapsible=0;dropTarget=0;pointerEvents=0;fillColor=none;points=[[0,0.5],[1,0.5]];portConstraint=eastwest;top=0;left=0;right=0;bottom=0;strokeWidth=2;fontSize=13;" parent="2" vertex="1"><mxGeometry y="180" width="280" height="20" as="geometry"/></mxCell><mxCell id="24" style="shape=partialRectangle;overflow=hidden;connectable=0;fillColor=none;top=0;left=0;bottom=0;right=0;strokeWidth=2;fontSize=13;align=center;verticalAlign=top;" parent="23" vertex="1"><mxGeometry width="30" height="20" as="geometry"><mxRectangle width="30" height="20" as="alternateBounds"/></mxGeometry></mxCell><mxCell id="25" value="zip_code" style="shape=partialRectangle;overflow=hidden;connectable=0;fillColor=none;top=0;left=0;bottom=0;right=0;align=left;spacingLeft=6;strokeWidth=2;fontSize=13;" parent="23" vertex="1"><mxGeometry x="30" width="80" height="20" as="geometry"><mxRectangle width="80" height="20" as="alternateBounds"/></mxGeometry></mxCell><mxCell id="26" value="TEXT NOT NULL" style="shape=partialRectangle;overflow=hidden;connectable=0;fillColor=none;top=0;left=0;bottom=0;right=0;align=left;spacingLeft=6;strokeWidth=2;fontSize=13;" parent="23" vertex="1"><mxGeometry x="110" width="170" height="20" as="geometry"><mxRectangle width="170" height="20" as="alternateBounds"/></mxGeometry></mxCell><mxCell id="29" style="edgeStyle=orthogonalEdgeStyle;rounded=0;orthogonalLoop=1;jettySize=auto;html=1;entryX=0;entryY=0.5;entryDx=0;entryDy=0;endArrow=ERmandOne;endFill=0;startArrow=ERmandOne;startFill=0;strokeWidth=2;" parent="1" source="11" target="e4y07ZTummI6uixQoZiz-6" edge="1"><mxGeometry relative="1" as="geometry"/></mxCell><mxCell id="131" style="edgeStyle=orthogonalEdgeStyle;rounded=0;orthogonalLoop=1;jettySize=auto;html=1;entryX=0.502;entryY=1.026;entryDx=0;entryDy=0;entryPerimeter=0;endArrow=ERoneToMany;endFill=0;startArrow=ERmandOne;startFill=0;strokeWidth=2;" parent="1" source="105" target="127" edge="1"><mxGeometry relative="1" as="geometry"/></mxCell><mxCell id="105" value="Country" style="shape=table;startSize=40;container=1;collapsible=1;childLayout=tableLayout;fixedRows=1;rowLines=0;fontStyle=1;align=center;resizeLast=1;strokeWidth=2;fontSize=13;" parent="1" vertex="1"><mxGeometry x="-650" y="10" width="280" height="130" as="geometry"/></mxCell><mxCell id="106" value="" style="shape=partialRectangle;collapsible=0;dropTarget=0;pointerEvents=0;fillColor=none;points=[[0,0.5],[1,0.5]];portConstraint=eastwest;top=0;left=0;right=0;bottom=1;strokeWidth=2;fontSize=13;" parent="105" vertex="1"><mxGeometry y="40" width="280" height="40" as="geometry"/></mxCell><mxCell id="107" value="PK" style="shape=partialRectangle;overflow=hidden;connectable=0;fillColor=none;top=0;left=0;bottom=0;right=0;fontStyle=1;strokeWidth=2;fontSize=13;" parent="106" vertex="1"><mxGeometry width="30" height="40" as="geometry"><mxRectangle width="30" height="40" as="alternateBounds"/></mxGeometry></mxCell><mxCell id="108" value="id" style="shape=partialRectangle;overflow=hidden;connectable=0;fillColor=none;top=0;left=0;bottom=0;right=0;align=left;spacingLeft=6;fontStyle=5;strokeWidth=2;fontSize=13;" parent="106" vertex="1"><mxGeometry x="30" width="80" height="40" as="geometry"><mxRectangle width="80" height="40" as="alternateBounds"/></mxGeometry></mxCell><mxCell id="109" value="SMALLINT NOT NULL" style="shape=partialRectangle;overflow=hidden;connectable=0;fillColor=none;top=0;left=0;bottom=0;right=0;align=left;spacingLeft=6;fontStyle=1;strokeWidth=2;fontSize=13;" parent="106" vertex="1"><mxGeometry x="110" width="170" height="40" as="geometry"><mxRectangle width="170" height="40" as="alternateBounds"/></mxGeometry></mxCell><mxCell id="110" value="" style="shape=partialRectangle;collapsible=0;dropTarget=0;pointerEvents=0;fillColor=none;points=[[0,0.5],[1,0.5]];portConstraint=eastwest;top=0;left=0;right=0;bottom=0;strokeWidth=2;fontSize=13;" parent="105" vertex="1"><mxGeometry y="80" width="280" height="30" as="geometry"/></mxCell><mxCell id="111" value="" style="shape=partialRectangle;overflow=hidden;connectable=0;fillColor=none;top=0;left=0;bottom=0;right=0;strokeWidth=2;fontSize=13;align=center;verticalAlign=top;" parent="110" vertex="1"><mxGeometry width="30" height="30" as="geometry"><mxRectangle width="30" height="30" as="alternateBounds"/></mxGeometry></mxCell><mxCell id="112" value="code" style="shape=partialRectangle;overflow=hidden;connectable=0;fillColor=none;top=0;left=0;bottom=0;right=0;align=left;spacingLeft=6;strokeWidth=2;fontSize=13;" parent="110" vertex="1"><mxGeometry x="30" width="80" height="30" as="geometry"><mxRectangle width="80" height="30" as="alternateBounds"/></mxGeometry></mxCell><mxCell id="113" value="TEXT NOT NULL" style="shape=partialRectangle;overflow=hidden;connectable=0;fillColor=none;top=0;left=0;bottom=0;right=0;align=left;spacingLeft=6;strokeWidth=2;fontSize=13;" parent="110" vertex="1"><mxGeometry x="110" width="170" height="30" as="geometry"><mxRectangle width="170" height="30" as="alternateBounds"/></mxGeometry></mxCell><mxCell id="114" style="shape=partialRectangle;collapsible=0;dropTarget=0;pointerEvents=0;fillColor=none;points=[[0,0.5],[1,0.5]];portConstraint=eastwest;top=0;left=0;right=0;bottom=0;strokeWidth=2;fontSize=13;" parent="105" vertex="1"><mxGeometry y="110" width="280" height="20" as="geometry"/></mxCell><mxCell id="115" style="shape=partialRectangle;overflow=hidden;connectable=0;fillColor=none;top=0;left=0;bottom=0;right=0;strokeWidth=2;fontSize=13;align=center;verticalAlign=top;" parent="114" vertex="1"><mxGeometry width="30" height="20" as="geometry"><mxRectangle width="30" height="20" as="alternateBounds"/></mxGeometry></mxCell><mxCell id="116" value="name" style="shape=partialRectangle;overflow=hidden;connectable=0;fillColor=none;top=0;left=0;bottom=0;right=0;align=left;spacingLeft=6;strokeWidth=2;fontSize=13;" parent="114" vertex="1"><mxGeometry x="30" width="80" height="20" as="geometry"><mxRectangle width="80" height="20" as="alternateBounds"/></mxGeometry></mxCell><mxCell id="117" value="TEXT NOT NULL" style="shape=partialRectangle;overflow=hidden;connectable=0;fillColor=none;top=0;left=0;bottom=0;right=0;align=left;spacingLeft=6;strokeWidth=2;fontSize=13;" parent="114" vertex="1"><mxGeometry x="110" width="170" height="20" as="geometry"><mxRectangle width="170" height="20" as="alternateBounds"/></mxGeometry></mxCell><mxCell id="118" value="State" style="shape=table;startSize=40;container=1;collapsible=1;childLayout=tableLayout;fixedRows=1;rowLines=0;fontStyle=1;align=center;resizeLast=1;strokeWidth=2;fontSize=13;" parent="1" vertex="1"><mxGeometry x="-650" y="-220" width="280" height="130" as="geometry"/></mxCell><mxCell id="119" value="" style="shape=partialRectangle;collapsible=0;dropTarget=0;pointerEvents=0;fillColor=none;points=[[0,0.5],[1,0.5]];portConstraint=eastwest;top=0;left=0;right=0;bottom=1;strokeWidth=2;fontSize=13;" parent="118" vertex="1"><mxGeometry y="40" width="280" height="40" as="geometry"/></mxCell><mxCell id="120" value="PK" style="shape=partialRectangle;overflow=hidden;connectable=0;fillColor=none;top=0;left=0;bottom=0;right=0;fontStyle=1;strokeWidth=2;fontSize=13;" parent="119" vertex="1"><mxGeometry width="30" height="40" as="geometry"><mxRectangle width="30" height="40" as="alternateBounds"/></mxGeometry></mxCell><mxCell id="121" value="id" style="shape=partialRectangle;overflow=hidden;connectable=0;fillColor=none;top=0;left=0;bottom=0;right=0;align=left;spacingLeft=6;fontStyle=5;strokeWidth=2;fontSize=13;" parent="119" vertex="1"><mxGeometry x="30" width="80" height="40" as="geometry"><mxRectangle width="80" height="40" as="alternateBounds"/></mxGeometry></mxCell><mxCell id="122" value="SMALLINT NOT NULL" style="shape=partialRectangle;overflow=hidden;connectable=0;fillColor=none;top=0;left=0;bottom=0;right=0;align=left;spacingLeft=6;fontStyle=1;strokeWidth=2;fontSize=13;" parent="119" vertex="1"><mxGeometry x="110" width="170" height="40" as="geometry"><mxRectangle width="170" height="40" as="alternateBounds"/></mxGeometry></mxCell><mxCell id="123" value="" style="shape=partialRectangle;collapsible=0;dropTarget=0;pointerEvents=0;fillColor=none;points=[[0,0.5],[1,0.5]];portConstraint=eastwest;top=0;left=0;right=0;bottom=0;strokeWidth=2;fontSize=13;" parent="118" vertex="1"><mxGeometry y="80" width="280" height="30" as="geometry"/></mxCell><mxCell id="124" value="" style="shape=partialRectangle;overflow=hidden;connectable=0;fillColor=none;top=0;left=0;bottom=0;right=0;strokeWidth=2;fontSize=13;align=center;verticalAlign=top;" parent="123" vertex="1"><mxGeometry width="30" height="30" as="geometry"><mxRectangle width="30" height="30" as="alternateBounds"/></mxGeometry></mxCell><mxCell id="125" value="name" style="shape=partialRectangle;overflow=hidden;connectable=0;fillColor=none;top=0;left=0;bottom=0;right=0;align=left;spacingLeft=6;strokeWidth=2;fontSize=13;" parent="123" vertex="1"><mxGeometry x="30" width="80" height="30" as="geometry"><mxRectangle width="80" height="30" as="alternateBounds"/></mxGeometry></mxCell><mxCell id="126" value="TEXT NOT NULL" style="shape=partialRectangle;overflow=hidden;connectable=0;fillColor=none;top=0;left=0;bottom=0;right=0;align=left;spacingLeft=6;strokeWidth=2;fontSize=13;" parent="123" vertex="1"><mxGeometry x="110" width="170" height="30" as="geometry"><mxRectangle width="170" height="30" as="alternateBounds"/></mxGeometry></mxCell><mxCell id="127" style="shape=partialRectangle;collapsible=0;dropTarget=0;pointerEvents=0;fillColor=none;points=[[0,0.5],[1,0.5]];portConstraint=eastwest;top=0;left=0;right=0;bottom=0;strokeWidth=2;fontSize=13;" parent="118" vertex="1"><mxGeometry y="110" width="280" height="20" as="geometry"/></mxCell><mxCell id="128" style="shape=partialRectangle;overflow=hidden;connectable=0;fillColor=none;top=0;left=0;bottom=0;right=0;strokeWidth=2;fontSize=13;align=center;verticalAlign=top;" parent="127" vertex="1"><mxGeometry width="30" height="20" as="geometry"><mxRectangle width="30" height="20" as="alternateBounds"/></mxGeometry></mxCell><mxCell id="129" value="country_id" style="shape=partialRectangle;overflow=hidden;connectable=0;fillColor=none;top=0;left=0;bottom=0;right=0;align=left;spacingLeft=6;strokeWidth=2;fontSize=13;" parent="127" vertex="1"><mxGeometry x="30" width="80" height="20" as="geometry"><mxRectangle width="80" height="20" as="alternateBounds"/></mxGeometry></mxCell><mxCell id="130" value="SMALLINT NOT NULL" style="shape=partialRectangle;overflow=hidden;connectable=0;fillColor=none;top=0;left=0;bottom=0;right=0;align=left;spacingLeft=6;strokeWidth=2;fontSize=13;" parent="127" vertex="1"><mxGeometry x="110" width="170" height="20" as="geometry"><mxRectangle width="170" height="20" as="alternateBounds"/></mxGeometry></mxCell></root></mxGraphModel></diagram></mxfile>